<svg xmlns="http://www.w3.org/2000/svg" width="512" height="512" viewBox="0 0 135.467 135.467"><g aria-label="2nd" style="font-style:normal;font-variant:normal;font-weight:900;font-stretch:normal;font-size:40px;line-height:1.25;font-family:&quot;Noto Sans CJK SC&quot;;-inkscape-font-specification:&quot;Noto Sans CJK SC Heavy&quot;;letter-spacing:0;word-spacing:0;fill:#000;fill-opacity:1;stroke:none"><path d="M364.418 326.909h165.12v-48h-43.84c-10.56 0-26.88 1.6-38.72 3.2 36.48-36.8 71.68-81.92 71.68-122.88 0-45.44-32-74.88-78.08-74.88-33.92 0-55.68 12.16-79.04 36.8l31.04 30.72c11.2-12.16 24-23.04 40.32-23.04 18.88 0 31.04 11.84 31.04 33.6 0 34.56-40 77.76-99.52 131.84z" style="font-style:normal;font-variant:normal;font-weight:900;font-stretch:normal;font-size:320px;line-height:1;font-family:&quot;Noto Sans CJK SC&quot;;-inkscape-font-specification:&quot;Noto Sans CJK SC Heavy&quot;;text-align:center;text-anchor:middle" transform="matrix(.26458 0 0 .26458 -86.587 20.158)"/><path d="M560.954 198.909h36.816v-79.04c7.28-6.864 12.272-10.608 20.592-10.608 9.36 0 13.728 4.784 13.728 21.008v68.64h37.024v-73.216c0-29.536-11.024-48.048-36.816-48.048-16.016 0-28.08 8.112-37.856 17.68h-.832l-2.496-14.768h-30.16zM740.292 201.82c11.232 0 22.672-6.031 30.992-14.351h.832l2.704 11.44h30.16V32.717h-37.232v39.52l1.456 17.68c-7.696-7.488-15.392-12.272-28.496-12.272-24.544 0-48.88 23.296-48.88 62.192 0 38.48 18.928 61.984 48.464 61.984zm9.776-30.367c-12.688 0-20.176-9.568-20.176-32.24 0-21.84 9.36-31.408 19.552-31.408 6.24 0 12.688 1.872 18.304 7.072v46.592c-4.992 7.696-10.608 9.984-17.68 9.984z" style="font-size:64.99999762%;baseline-shift:super;fill:red" transform="matrix(.26458 0 0 .26458 -86.587 20.158)"/></g></svg>