<?xml version="1.0" encoding="UTF-8" standalone="no"?>
<!-- Created with Inkscape (http://www.inkscape.org/) -->

<svg
   xmlns:dc="http://purl.org/dc/elements/1.1/"
   xmlns:cc="http://creativecommons.org/ns#"
   xmlns:rdf="http://www.w3.org/1999/02/22-rdf-syntax-ns#"
   xmlns:svg="http://www.w3.org/2000/svg"
   xmlns="http://www.w3.org/2000/svg"
   xmlns:sodipodi="http://sodipodi.sourceforge.net/DTD/sodipodi-0.dtd"
   xmlns:inkscape="http://www.inkscape.org/namespaces/inkscape"
   width="512"
   height="512"
   viewBox="0 0 135.46666 135.46667"
   version="1.1"
   id="svg8"
   inkscape:version="0.92.4 (5da689c313, 2019-01-14)"
   sodipodi:docname="博客_favicon_路径.svg">
  <defs
     id="defs2" />
  <sodipodi:namedview
     id="base"
     pagecolor="#ffffff"
     bordercolor="#666666"
     borderopacity="1.0"
     inkscape:pageopacity="0.0"
     inkscape:pageshadow="2"
     inkscape:zoom="0.49497475"
     inkscape:cx="-149.70863"
     inkscape:cy="455.21823"
     inkscape:document-units="mm"
     inkscape:current-layer="layer1"
     showgrid="false"
     units="px"
     inkscape:pagecheckerboard="true"
     inkscape:window-width="1920"
     inkscape:window-height="1017"
     inkscape:window-x="-8"
     inkscape:window-y="-8"
     inkscape:window-maximized="1" />
  <metadata
     id="metadata5">
    <rdf:RDF>
      <cc:Work
         rdf:about="">
        <dc:format>image/svg+xml</dc:format>
        <dc:type
           rdf:resource="http://purl.org/dc/dcmitype/StillImage" />
        <dc:title></dc:title>
      </cc:Work>
    </rdf:RDF>
  </metadata>
  <g
     inkscape:label="Layer 1"
     inkscape:groupmode="layer"
     id="layer1"
     transform="translate(0,-161.53332)">
    <g
       aria-label="2nd
"
       transform="matrix(0.26458333,0,0,0.26458333,-86.587186,181.69124)"
       style="font-style:normal;font-variant:normal;font-weight:900;font-stretch:normal;font-size:40px;line-height:1.25;font-family:'Noto Sans CJK SC';-inkscape-font-specification:'Noto Sans CJK SC Heavy';letter-spacing:0px;word-spacing:0px;fill:#000000;fill-opacity:1;stroke:none"
       id="flowRoot815">
      <path
         d="m 364.41754,326.90859 h 165.12 v -48 h -43.84 c -10.56,0 -26.88,1.6 -38.72,3.2 36.48,-36.8 71.68,-81.92 71.68,-122.88 0,-45.44 -32,-74.879996 -78.08,-74.879996 -33.92,0 -55.68,12.16 -79.04,36.799996 l 31.04,30.72 c 11.2,-12.16 24,-23.04 40.32,-23.04 18.88,0 31.04,11.84 31.04,33.6 0,34.56 -40,77.76 -99.52,131.84 z"
         style="font-style:normal;font-variant:normal;font-weight:900;font-stretch:normal;font-size:320px;line-height:1;font-family:'Noto Sans CJK SC';-inkscape-font-specification:'Noto Sans CJK SC Heavy';text-align:center;text-anchor:middle"
         id="path857" />
      <path
         d="m 560.95354,198.90859 h 36.816 v -79.04 c 7.28,-6.864 12.272,-10.608 20.592,-10.608 9.36,0 13.728,4.784 13.728,21.008 v 68.64 h 37.024 v -73.216 c 0,-29.535996 -11.024,-48.047996 -36.816,-48.047996 -16.016,0 -28.08,8.112 -37.856,17.68 h -0.832 l -2.496,-14.768 h -30.16 z"
         style="font-size:64.99999762%;baseline-shift:super;fill:#ff0000"
         id="path859" />
      <path
         d="m 740.29179,201.82059 c 11.232,0 22.672,-6.032 30.992,-14.352 h 0.832 l 2.704,11.44 h 30.16 V 32.716594 h -37.232 v 39.52 l 1.456,17.68 c -7.696,-7.488 -15.392,-12.272 -28.496,-12.272 -24.544,0 -48.88,23.295996 -48.88,62.191996 0,38.48 18.928,61.984 48.464,61.984 z m 9.776,-30.368 c -12.688,0 -20.176,-9.568 -20.176,-32.24 0,-21.84 9.36,-31.408 19.552,-31.408 6.24,0 12.688,1.872 18.304,7.072 v 46.592 c -4.992,7.696 -10.608,9.984 -17.68,9.984 z"
         style="font-size:64.99999762%;baseline-shift:super;fill:#ff0000"
         id="path861" />
    </g>
  </g>
</svg>
